<svg width="289" height="250" viewBox="0 0 289 250" fill="none" xmlns="http://www.w3.org/2000/svg">
<path d="M62.4235 107.154C60.3779 111.339 57.9561 116.995 55.5467 123.49C49.6114 139.489 43.5869 161.015 43.5869 178.566C43.5869 187.808 47.7422 197.021 53.0223 205.445C57.4237 212.468 62.7701 219.185 67.4852 225.109C68.4378 226.306 69.3646 227.47 70.2527 228.598C72.9221 231.989 75.226 235.03 76.9108 237.695C78.6369 240.425 79.5132 242.461 79.6626 243.885C79.7311 244.539 79.6331 244.949 79.4905 245.228C79.3505 245.502 79.0661 245.85 78.416 246.207C77.0038 246.985 74.303 247.574 69.6099 247.574C32.4376 247.574 2.76868 220.651 2.76868 187.982C2.76868 180.072 6.40087 170.627 12.275 160.782C18.1143 150.994 26.0055 141.079 34.153 132.296C42.2988 123.515 50.6391 115.932 57.3322 110.797C59.1873 109.373 60.8961 108.154 62.4235 107.154Z" fill="#5CDE46" stroke="#C9FFEB" stroke-width="4.80726"/>
<path d="M202.653 15.1352C202.618 15.1849 202.584 15.2348 202.55 15.2849C198.16 21.7004 192.369 31.8798 186.602 44.0207C175.101 68.2339 163.445 100.781 163.445 127.287C163.445 141.129 171.41 154.939 181.577 167.608C190.066 178.187 200.371 188.299 209.523 197.281C211.377 199.1 213.184 200.873 214.919 202.594C220.104 207.738 224.625 212.396 227.946 216.498C231.344 220.697 233.157 223.932 233.47 226.259C233.611 227.313 233.429 228.073 233.021 228.697C232.585 229.364 231.729 230.121 230.092 230.824C226.747 232.262 220.922 233.152 211.698 233.152C175.012 233.152 141.902 222.75 118.028 206.056C94.1467 189.357 79.6848 166.518 79.6848 141.563C79.6848 129.41 86.8259 114.941 98.3036 99.9154C109.713 84.9791 125.115 69.8674 140.997 56.4958C156.872 43.1293 173.151 31.5655 186.26 23.7104C192.667 19.8709 198.263 16.9504 202.653 15.1352Z" fill="#C9FFEB" stroke="#5CDE46" stroke-width="4.80726"/>
<path d="M269.204 6.29128C267.144 10.6223 264.691 16.5238 262.25 23.3147C256.316 39.8262 250.299 62.027 250.299 80.1177C250.299 89.6142 254.437 99.099 259.716 107.794C264.115 115.038 269.459 121.968 274.174 128.083C275.126 129.319 276.054 130.521 276.942 131.686C279.611 135.186 281.917 138.328 283.605 141.083C285.33 143.9 286.221 146.022 286.374 147.527C286.445 148.226 286.344 148.679 286.189 148.992C286.038 149.297 285.744 149.658 285.1 150.024C283.697 150.821 281.01 151.429 276.322 151.429C239.225 151.429 209.481 123.678 209.481 89.8373C209.481 81.631 213.129 71.8564 219.004 61.6908C224.847 51.5806 232.742 41.3414 240.891 32.2739C249.038 23.2076 257.38 15.3787 264.073 10.0777C265.945 8.5956 267.667 7.3274 269.204 6.29128Z" fill="#5CDE46" stroke="#C9FFEB" stroke-width="4.80726"/>
</svg>
